<?xml version="1.0" encoding="UTF-8" standalone="no"?>
<!-- Created with Inkscape (http://www.inkscape.org/) -->

<svg
   width="210mm"
   height="297mm"
   viewBox="0 0 210 297"
   version="1.1"
   id="svg1"
   xml:space="preserve"
   inkscape:version="1.3 (0e150ed6c4, 2023-07-21)"
   sodipodi:docname="CALENDARIO.svg"
   xmlns:inkscape="http://www.inkscape.org/namespaces/inkscape"
   xmlns:sodipodi="http://sodipodi.sourceforge.net/DTD/sodipodi-0.dtd"
   xmlns="http://www.w3.org/2000/svg"
   xmlns:svg="http://www.w3.org/2000/svg"><sodipodi:namedview
     id="namedview1"
     pagecolor="#ffffff"
     bordercolor="#000000"
     borderopacity="0.25"
     inkscape:showpageshadow="2"
     inkscape:pageopacity="0.0"
     inkscape:pagecheckerboard="0"
     inkscape:deskcolor="#d1d1d1"
     inkscape:document-units="mm"
     inkscape:zoom="0.74742565"
     inkscape:cx="172.59242"
     inkscape:cy="688.36279"
     inkscape:window-width="1920"
     inkscape:window-height="1017"
     inkscape:window-x="-8"
     inkscape:window-y="80"
     inkscape:window-maximized="1"
     inkscape:current-layer="layer1" /><defs
     id="defs1" /><g
     inkscape:label="Camada 1"
     inkscape:groupmode="layer"
     id="layer1"><g
       id="g6"><rect
         style="opacity:1;fill:#000000;fill-opacity:1;stroke-width:0.0898812"
         id="rect2"
         width="22.894535"
         height="15.519266"
         x="82.105469"
         y="165.68193"
         ry="5.917418" /><rect
         style="fill:#000000;fill-opacity:1;stroke-width:0.0898812"
         id="rect2-7"
         width="22.894535"
         height="15.519266"
         x="110.16861"
         y="165.68193"
         ry="5.917418" /><rect
         style="fill:#000000;fill-opacity:1;stroke-width:0.0898812"
         id="rect2-7-0"
         width="22.894535"
         height="15.519266"
         x="138.23172"
         y="165.68193"
         ry="5.917418" /><rect
         style="fill:#000000;fill-opacity:1;stroke-width:0.0898812"
         id="rect2-5"
         width="22.894535"
         height="15.519266"
         x="54.042355"
         y="185.89609"
         ry="5.917418" /><rect
         style="fill:#000000;fill-opacity:1;stroke-width:0.0898812"
         id="rect2-5-4"
         width="22.894535"
         height="15.519266"
         x="138.23172"
         y="185.89609"
         ry="5.917418" /><rect
         style="fill:#000000;fill-opacity:1;stroke-width:0.0898812"
         id="rect2-7-4"
         width="22.894535"
         height="15.519266"
         x="82.105469"
         y="185.89609"
         ry="5.917418" /><rect
         style="fill:#000000;fill-opacity:1;stroke-width:0.0898812"
         id="rect2-7-0-6"
         width="22.894535"
         height="15.519266"
         x="110.16861"
         y="185.89609"
         ry="5.917418" /><rect
         style="fill:#000000;fill-opacity:1;stroke-width:0.0898812"
         id="rect2-3"
         width="22.894535"
         height="15.519266"
         x="54.042355"
         y="206.11024"
         ry="5.917418" /><rect
         style="fill:#000000;fill-opacity:1;stroke-width:0.0898812"
         id="rect2-7-8"
         width="22.894535"
         height="15.519266"
         x="82.105469"
         y="206.11024"
         ry="5.917418" /><rect
         style="fill:#000000;fill-opacity:1;stroke-width:0.0898812"
         id="rect2-7-0-9"
         width="22.894535"
         height="15.519266"
         x="110.16858"
         y="206.11024"
         ry="5.917418" /><path
         id="rect3-3"
         style="fill:#000000;fill-opacity:1;stroke-width:0.104411"
         d="m 55.328555,114.00699 c -13.106304,0 -23.657988,11.20376 -23.657988,25.12044 v 81.40174 c 0,13.91654 10.551684,25.12044 23.657988,25.12044 H 157.49648 c 13.10633,0 23.65798,-11.2039 23.65798,-25.12044 v -81.40174 c 0,-13.4879 -9.91959,-24.39557 -22.46219,-25.05687 v 8.94777 c 0,6.79491 -5.05155,12.26489 -11.32644,12.26489 -6.27491,0 -11.32644,-5.46998 -11.32644,-12.26489 v -9.01134 h -15.93753 v 9.01134 c 0,6.79491 -5.05156,12.26489 -11.32644,12.26489 -6.27491,0 -11.326439,-5.46998 -11.326439,-12.26489 v -9.01134 H 81.511969 v 9.01134 c 0,6.79491 -5.051552,12.26489 -11.32644,12.26489 -6.274878,0 -11.326957,-5.46998 -11.326957,-12.26489 v -9.01134 z M 44.455317,155.44271 H 170.35099 v 24.32203 16.97932 29.74547 c 0,5.43132 -4.37273,9.80406 -9.80405,9.80406 H 54.259369 c -5.43132,0 -9.804052,-4.37274 -9.804052,-9.80406 v -29.74547 -16.97932 z" /><rect
         style="opacity:1;fill:#000000;fill-opacity:0.95158595;stroke-width:0.0815288"
         id="rect4"
         width="10.638206"
         height="24.655609"
         x="64.204704"
         y="105.25126"
         ry="4.3239312" /><rect
         style="fill:#000000;fill-opacity:1;stroke-width:0.0815288"
         id="rect4-0"
         width="10.638206"
         height="24.655609"
         x="102.4464"
         y="105.25126"
         ry="4.3239312" /><rect
         style="fill:#000000;fill-opacity:1;stroke-width:0.0815288"
         id="rect4-8"
         width="10.638206"
         height="24.655609"
         x="140.68811"
         y="105.25126"
         ry="4.3239312" /></g></g></svg>
