<?xml version="1.0" encoding="UTF-8" standalone="no"?>
<!-- Created with Inkscape (http://www.inkscape.org/) -->

<svg
   width="210mm"
   height="297mm"
   viewBox="0 0 210 297"
   version="1.1"
   id="svg1"
   xml:space="preserve"
   inkscape:version="1.3 (0e150ed6c4, 2023-07-21)"
   sodipodi:docname="cometario.svg"
   xmlns:inkscape="http://www.inkscape.org/namespaces/inkscape"
   xmlns:sodipodi="http://sodipodi.sourceforge.net/DTD/sodipodi-0.dtd"
   xmlns="http://www.w3.org/2000/svg"
   xmlns:svg="http://www.w3.org/2000/svg"><sodipodi:namedview
     id="namedview1"
     pagecolor="#ffffff"
     bordercolor="#000000"
     borderopacity="0.25"
     inkscape:showpageshadow="2"
     inkscape:pageopacity="0.0"
     inkscape:pagecheckerboard="0"
     inkscape:deskcolor="#d1d1d1"
     inkscape:document-units="mm"
     inkscape:zoom="1.0570195"
     inkscape:cx="422.88719"
     inkscape:cy="620.13994"
     inkscape:window-width="1920"
     inkscape:window-height="1017"
     inkscape:window-x="-8"
     inkscape:window-y="80"
     inkscape:window-maximized="1"
     inkscape:current-layer="layer1" /><defs
     id="defs1" /><g
     inkscape:label="Camada 1"
     inkscape:groupmode="layer"
     id="layer1"><ellipse
       style="fill:#000000;stroke-width:0.105565;fill-opacity:1"
       id="path1"
       cx="105"
       cy="117.08601"
       rx="46.933262"
       ry="32.915863" /><ellipse
       style="fill:#000000;stroke-width:0.1;fill-opacity:1"
       id="path2"
       cx="68.772873"
       cy="156.99176"
       rx="2.4092407"
       ry="2.2058635" /><ellipse
       style="fill:#000000;stroke-width:0.1;fill-opacity:1"
       id="path2-2"
       cx="163.53319"
       cy="173.52403"
       rx="2.4092407"
       ry="2.2058635" /><path
       style="fill:#000000;stroke-width:0.1;fill-opacity:1"
       d="m 66.645234,155.88102 c 0,0 6.132615,-6.78968 7.133857,-8.51057 1.001244,-1.72089 1.720887,-5.66328 1.720887,-5.66328 l 17.834639,6.47679 c -4.129946,4.27948 -13.287688,9.76106 -23.38841,10.70077 z"
       id="path3"
       sodipodi:nodetypes="cscccc" /><path
       style="fill:#000000;fill-opacity:1;stroke-width:0.1"
       d="m 163.74945,175.40137 c -0.31021,1.79553 -22.77066,-6.14954 -23.65678,-9.20173 -25.67301,3.54693 -33.28259,-2.79301 -42.036651,-7.25685 27.591671,-6.32972 64.276381,-16.60303 58.143321,-51.06347 8.69318,5.00271 19.9575,12.9931 17.16866,33.09833 -2.87398,8.00725 -6.98741,15.22852 -16.63767,18.93862 1.84317,5.19818 5.70781,8.80807 9.10551,12.78484 z"
       id="path4"
       sodipodi:nodetypes="cccccccc" /></g></svg>
