<?xml version="1.0" encoding="UTF-8" standalone="no"?>
<!-- Created with Inkscape (http://www.inkscape.org/) -->

<svg
   width="210mm"
   height="297mm"
   viewBox="0 0 210 297"
   version="1.1"
   id="svg1"
   xml:space="preserve"
   inkscape:version="1.3 (0e150ed6c4, 2023-07-21)"
   sodipodi:docname="dislike.svg"
   xmlns:inkscape="http://www.inkscape.org/namespaces/inkscape"
   xmlns:sodipodi="http://sodipodi.sourceforge.net/DTD/sodipodi-0.dtd"
   xmlns="http://www.w3.org/2000/svg"
   xmlns:svg="http://www.w3.org/2000/svg"><sodipodi:namedview
     id="namedview1"
     pagecolor="#ffffff"
     bordercolor="#000000"
     borderopacity="0.25"
     inkscape:showpageshadow="2"
     inkscape:pageopacity="0.0"
     inkscape:pagecheckerboard="0"
     inkscape:deskcolor="#d1d1d1"
     inkscape:document-units="mm"
     inkscape:zoom="0.52850974"
     inkscape:cx="325.44339"
     inkscape:cy="396.39761"
     inkscape:window-width="1920"
     inkscape:window-height="1017"
     inkscape:window-x="-8"
     inkscape:window-y="80"
     inkscape:window-maximized="1"
     inkscape:current-layer="layer1" /><defs
     id="defs1" /><g
     inkscape:label="Camada 1"
     inkscape:groupmode="layer"
     id="layer1"><ellipse
       style="fill:#000000;fill-opacity:1;stroke-width:0.126805"
       id="path4"
       cx="205.41788"
       cy="-92.90361"
       rx="9.7536983"
       ry="12.9953"
       transform="matrix(0.83973473,0.54299686,0.49215344,-0.87050847,0,0)" /><rect
       style="fill:#000000;fill-opacity:1;stroke-width:0.0994146"
       id="rect4"
       width="29.308907"
       height="74.189087"
       x="52.750065"
       y="-154.95575"
       ry="7.2076006"
       rx="0"
       transform="scale(1,-1)" /><rect
       style="fill:#000000;fill-opacity:1;stroke-width:0.138957"
       id="rect5"
       width="8.795084"
       height="22.746988"
       x="61.469589"
       y="-150.91519"
       ry="3.3702347"
       transform="matrix(0.99788044,0.06507399,0.06507399,-0.99788044,0,0)" /><rect
       style="fill:#000000;fill-opacity:1;stroke-width:0.164625"
       id="rect5-2"
       width="9.3753557"
       height="29.950691"
       x="-154.61555"
       y="54.83849"
       ry="4.4375482"
       transform="matrix(0.01793619,-0.99983913,0.99998082,0.00619376,0,0)" /><path
       style="fill:#000000;fill-opacity:1;stroke-width:0.1"
       d="m 91.153156,155.15689 c 9.811714,9.03595 18.998204,16.88394 25.228744,39.57313 l 18.84337,2.70949 c 6.51986,-10.74158 3.92546,-26.13725 -0.53099,-42.48376 l 35.66478,0.18162 c 7.31379,-1.19791 7.44915,-4.62361 8.14183,-7.87634 -2.04943,-19.54101 -8.1364,-37.92843 -13.2958,-56.580869 -1.02486,-3.18112 -1.76145,-8.35327 -6.25777,-9.91349 h -58.3224 c -3.520521,0.43465 -7.352343,1.11843 -9.2615,6.15883 z"
       id="path6"
       sodipodi:nodetypes="ccccccccccc" /><path
       style="fill:#000000;fill-opacity:1;stroke-width:0.1"
       d="m 82.103641,150.19537 c 0.0079,-0.88302 -0.01378,-1.56449 -0.04467,-2.60248 l -1.171604,0.70799 z"
       id="path7"
       sodipodi:nodetypes="cccc" /></g></svg>
