<?xml version="1.0" encoding="UTF-8" standalone="no"?>
<!-- Created with Inkscape (http://www.inkscape.org/) -->

<svg
   width="210mm"
   height="297mm"
   viewBox="0 0 210 297"
   version="1.1"
   id="svg1"
   inkscape:version="1.3 (0e150ed6c4, 2023-07-21)"
   sodipodi:docname="inicio.svg"
   xmlns:inkscape="http://www.inkscape.org/namespaces/inkscape"
   xmlns:sodipodi="http://sodipodi.sourceforge.net/DTD/sodipodi-0.dtd"
   xmlns="http://www.w3.org/2000/svg"
   xmlns:svg="http://www.w3.org/2000/svg">
  <sodipodi:namedview
     id="namedview1"
     pagecolor="#ffffff"
     bordercolor="#000000"
     borderopacity="0.25"
     inkscape:showpageshadow="2"
     inkscape:pageopacity="0.0"
     inkscape:pagecheckerboard="0"
     inkscape:deskcolor="#d1d1d1"
     inkscape:document-units="mm"
     inkscape:zoom="0.51717104"
     inkscape:cx="15.46877"
     inkscape:cy="320.01019"
     inkscape:window-width="1920"
     inkscape:window-height="1017"
     inkscape:window-x="-8"
     inkscape:window-y="80"
     inkscape:window-maximized="1"
     inkscape:current-layer="layer1" />
  <defs
     id="defs1" />
  <g
     inkscape:label="Camada 1"
     inkscape:groupmode="layer"
     id="layer1">
    <g
       id="g2"
       transform="matrix(1.7981862,0,0,1.9589934,-78.213315,63.083947)">
      <rect
         style="fill:#000000;fill-opacity:1;stroke-width:0.1"
         id="rect7"
         width="10.914062"
         height="14.948958"
         x="85.129684"
         y="49.458511"
         ry="1.1575521" />
      <rect
         style="fill:#000000;fill-opacity:1;stroke-width:0.1"
         id="rect8"
         width="11.178646"
         height="14.948958"
         x="107.28854"
         y="49.458508"
         ry="1.1575521" />
      <rect
         style="fill:#000000;fill-opacity:1;stroke-width:0.104847"
         id="rect9"
         width="33.337498"
         height="10.252604"
         x="85.129684"
         y="41.256428"
         ry="1.2724863" />
      <path
         style="fill:#000000;fill-opacity:1;stroke-width:0.1"
         d="m 95.948868,53.368868 c 0,0 0.09354,-0.572961 0.210475,-0.912059 0.11693,-0.339097 0.68989,-0.712631 0.935442,-0.830206 0.245554,-0.117573 1.122534,-0.117573 1.122534,-0.117573 l -2.373688,-0.572315 z"
         id="path9" />
      <path
         style="fill:#000000;fill-opacity:1;stroke-width:0.1"
         d="m 107.52301,53.337605 c 0,0 -0.0935,-0.572961 -0.21048,-0.912059 -0.11693,-0.339097 -0.68989,-0.712631 -0.93544,-0.830206 -0.24555,-0.117573 -1.12253,-0.117573 -1.12253,-0.117573 l 2.37368,-0.572315 z"
         id="path9-1" />
      <ellipse
         style="fill:#000000;fill-opacity:1;stroke-width:0.108347"
         id="path10"
         cx="101.8023"
         cy="31.442039"
         rx="2.0091801"
         ry="1.7445964" />
      <path
         style="fill:#000000;fill-opacity:1;stroke-width:0.1"
         d="m 85.476952,41.653303 14.849738,-11.360547 2.94349,-0.03307 14.61483,11.205667 z"
         id="path11" />
      <ellipse
         style="fill:#000000;fill-opacity:1;stroke-width:0.103899"
         id="path12-0-1"
         cx="-81.777969"
         cy="41.421795"
         rx="2.3233724"
         ry="2.133203"
         transform="scale(-1,1)" />
      <rect
         style="fill:#000000;fill-opacity:1;stroke-width:0.0910416"
         id="rect12-5"
         width="26.930038"
         height="4.4409204"
         x="-73.601646"
         y="78.891281"
         ry="1.0715435"
         transform="matrix(-0.80104246,0.59860753,0.52842174,0.84898202,0,0)" />
      <rect
         style="fill:#000000;fill-opacity:1;stroke-width:0.0888387"
         id="rect13-6"
         width="1.4982547"
         height="2.1208007"
         x="-80.967682"
         y="39.321667"
         ry="0"
         transform="scale(-1,1)" />
      <ellipse
         style="fill:#000000;fill-opacity:1;stroke-width:0.103899"
         id="path12-0"
         cx="121.99772"
         cy="41.421795"
         rx="2.3233724"
         ry="2.133203" />
      <rect
         style="fill:#000000;fill-opacity:1;stroke-width:0.0910622"
         id="rect12"
         width="27.003067"
         height="4.430912"
         x="99.636101"
         y="-42.664207"
         ry="1.0691286"
         transform="matrix(0.80494513,0.59334925,-0.53363884,0.84571248,0,0)" />
      <rect
         style="fill:#000000;fill-opacity:1;stroke-width:0.0888387"
         id="rect13"
         width="1.4982547"
         height="2.1208007"
         x="122.80801"
         y="39.321667"
         ry="0" />
      <ellipse
         style="fill:#000000;fill-opacity:1;stroke-width:0.101732"
         id="path13"
         cx="101.68098"
         cy="25.177803"
         rx="2.7762666"
         ry="2.3812499" />
    </g>
  </g>
</svg>
