<?xml version="1.0" encoding="UTF-8" standalone="no"?>
<!-- Created with Inkscape (http://www.inkscape.org/) -->

<svg
   width="210mm"
   height="297mm"
   viewBox="0 0 210 297"
   version="1.1"
   id="svg1"
   xml:space="preserve"
   inkscape:version="1.3 (0e150ed6c4, 2023-07-21)"
   sodipodi:docname="like.svg"
   xmlns:inkscape="http://www.inkscape.org/namespaces/inkscape"
   xmlns:sodipodi="http://sodipodi.sourceforge.net/DTD/sodipodi-0.dtd"
   xmlns="http://www.w3.org/2000/svg"
   xmlns:svg="http://www.w3.org/2000/svg"><sodipodi:namedview
     id="namedview1"
     pagecolor="#ffffff"
     bordercolor="#000000"
     borderopacity="0.25"
     inkscape:showpageshadow="2"
     inkscape:pageopacity="0.0"
     inkscape:pagecheckerboard="0"
     inkscape:deskcolor="#d1d1d1"
     inkscape:document-units="mm"
     inkscape:zoom="0.52850974"
     inkscape:cx="325.44339"
     inkscape:cy="396.39761"
     inkscape:window-width="1920"
     inkscape:window-height="1017"
     inkscape:window-x="-8"
     inkscape:window-y="80"
     inkscape:window-maximized="1"
     inkscape:current-layer="layer1" /><defs
     id="defs1" /><g
     inkscape:label="Camada 1"
     inkscape:groupmode="layer"
     id="layer1"><ellipse
       style="fill:#000000;fill-opacity:1;stroke-width:0.126805"
       id="path4"
       cx="64.57457"
       cy="147.40968"
       rx="9.7536983"
       ry="12.9953"
       transform="matrix(0.83973473,-0.54299686,0.49215344,0.87050847,0,0)" /><rect
       style="fill:#000000;fill-opacity:1;stroke-width:0.0994146"
       id="rect4"
       width="29.308907"
       height="74.189087"
       x="52.750065"
       y="130.71648"
       ry="7.2076006"
       rx="0" /><rect
       style="fill:#000000;fill-opacity:1;stroke-width:0.138957"
       id="rect5"
       width="8.795084"
       height="22.746988"
       x="42.879757"
       y="134.15154"
       ry="3.3702347"
       transform="rotate(-3.7311017)" /><rect
       style="fill:#000000;fill-opacity:1;stroke-width:0.164625"
       id="rect5-2"
       width="9.3753557"
       height="29.950691"
       x="131.07089"
       y="49.714264"
       ry="4.4375482"
       transform="matrix(0.01793619,0.99983913,0.99998082,-0.00619376,0,0)" /><path
       style="fill:#000000;fill-opacity:1;stroke-width:0.1"
       d="M 91.153156,130.51534 C 100.96487,121.47939 110.15136,113.6314 116.3819,90.942215 l 18.84337,-2.709498 c 6.51986,10.741581 3.92546,26.137253 -0.53099,42.483763 l 35.66478,-0.18162 c 7.31379,1.19791 7.44915,4.62361 8.14183,7.87634 -2.04943,19.54101 -8.1364,37.92843 -13.2958,56.58087 -1.02486,3.18112 -1.76145,8.35327 -6.25777,9.91349 h -58.3224 c -3.520521,-0.43465 -7.352343,-1.11843 -9.2615,-6.15883 z"
       id="path6"
       sodipodi:nodetypes="ccccccccccc" /><path
       style="fill:#000000;fill-opacity:1;stroke-width:0.1"
       d="m 82.103641,135.47686 c 0.0079,0.88302 -0.01378,1.56449 -0.04467,2.60248 l -1.171604,-0.70799 z"
       id="path7"
       sodipodi:nodetypes="cccc" /></g></svg>
