<?xml version="1.0" encoding="UTF-8" standalone="no"?>
<!-- Created with Inkscape (http://www.inkscape.org/) -->

<svg
   width="210mm"
   height="297mm"
   viewBox="0 0 210 297"
   version="1.1"
   id="svg1"
   inkscape:version="1.3 (0e150ed6c4, 2023-07-21)"
   sodipodi:docname="livro.svg"
   xmlns:inkscape="http://www.inkscape.org/namespaces/inkscape"
   xmlns:sodipodi="http://sodipodi.sourceforge.net/DTD/sodipodi-0.dtd"
   xmlns="http://www.w3.org/2000/svg"
   xmlns:svg="http://www.w3.org/2000/svg">
  <sodipodi:namedview
     id="namedview1"
     pagecolor="#ffffff"
     bordercolor="#000000"
     borderopacity="0.25"
     inkscape:showpageshadow="2"
     inkscape:pageopacity="0.0"
     inkscape:pagecheckerboard="0"
     inkscape:deskcolor="#d1d1d1"
     inkscape:document-units="mm"
     inkscape:zoom="0.51717104"
     inkscape:cx="15.46877"
     inkscape:cy="320.01019"
     inkscape:window-width="1920"
     inkscape:window-height="1017"
     inkscape:window-x="-8"
     inkscape:window-y="80"
     inkscape:window-maximized="1"
     inkscape:current-layer="layer1" />
  <defs
     id="defs1" />
  <g
     inkscape:label="Camada 1"
     inkscape:groupmode="layer"
     id="layer1">
    <g
       id="g6"
       transform="matrix(2.3585516,0,0,2.3125734,-137.87947,-445.05422)">
      <path
         id="rect5"
         style="fill:#000000;fill-opacity:1;stroke-width:0.0996494"
         d="m 90.17589,239.12446 c -2.450581,0 -4.423502,1.97291 -4.423502,4.4235 v 26.23199 c 0,2.45059 1.972921,4.4235 4.423502,4.4235 h 20.52588 c 2.19789,0 4.00669,-1.58873 4.35736,-3.68401 -0.51206,-0.1197 -0.89142,-0.57647 -0.89142,-1.12603 v -3.70417 c 0,-0.57299 0.41233,-1.04518 0.95756,-1.13946 v -21.00182 c 0,-2.45059 -1.97292,-4.4235 -4.4235,-4.4235 z m 4.197677,8.8377 H 108.4957 c 0.39393,0 0.71107,0.31714 0.71107,0.71107 v 0.89297 c 0,0.39393 -0.31714,0.71106 -0.71107,0.71106 H 94.373567 c -0.393929,0 -0.711068,-0.31713 -0.711068,-0.71106 v -0.89297 c 0,-0.39393 0.317139,-0.71107 0.711068,-0.71107 z m 0,4.29535 H 108.4957 c 0.39393,0 0.71107,0.31714 0.71107,0.71106 v 0.89297 c 0,0.39393 -0.31714,0.71107 -0.71107,0.71107 H 94.373567 c -0.393929,0 -0.711068,-0.31714 -0.711068,-0.71107 v -0.89297 c 0,-0.39392 0.317139,-0.71106 0.711068,-0.71106 z m -2.166276,12.94236 a 2.5958552,2.3035293 0 0 1 0.07596,0.004 H 110.8201 v 4.59507 H 92.359219 a 2.5958552,2.3035293 0 0 1 -0.151928,0.008 2.5958552,2.3035293 0 0 1 -0.05891,-0.008 h -0.504879 v -0.0708 a 2.5958552,2.3035293 0 0 1 -2.032434,-2.22467 2.5958552,2.3035293 0 0 1 2.032434,-2.22467 v -0.0749 h 0.534334 a 2.5958552,2.3035293 0 0 1 0.02946,-0.004 z" />
      <rect
         style="fill:#000000;fill-opacity:1;stroke-width:0.120797"
         id="rect6"
         width="5.8854294"
         height="4.9516325"
         x="109.23985"
         y="239.12445"
         ry="1.1575521" />
      <rect
         style="fill:#000000;fill-opacity:1;stroke-width:0.0982878"
         id="rect6-3"
         width="5.2570438"
         height="3.6700568"
         x="109.86823"
         y="270.46823"
         ry="0.19351837" />
    </g>
  </g>
</svg>
