<?xml version="1.0" encoding="UTF-8" standalone="no"?>
<!-- Created with Inkscape (http://www.inkscape.org/) -->

<svg
   width="210mm"
   height="297mm"
   viewBox="0 0 210 297"
   version="1.1"
   id="svg1"
   xml:space="preserve"
   inkscape:version="1.3 (0e150ed6c4, 2023-07-21)"
   sodipodi:docname="lupa.svg"
   xmlns:inkscape="http://www.inkscape.org/namespaces/inkscape"
   xmlns:sodipodi="http://sodipodi.sourceforge.net/DTD/sodipodi-0.dtd"
   xmlns="http://www.w3.org/2000/svg"
   xmlns:svg="http://www.w3.org/2000/svg"><sodipodi:namedview
     id="namedview1"
     pagecolor="#ffffff"
     bordercolor="#000000"
     borderopacity="0.25"
     inkscape:showpageshadow="2"
     inkscape:pageopacity="0.0"
     inkscape:pagecheckerboard="0"
     inkscape:deskcolor="#d1d1d1"
     inkscape:document-units="mm"
     inkscape:zoom="0.74742565"
     inkscape:cx="330.46765"
     inkscape:cy="569.2874"
     inkscape:window-width="1920"
     inkscape:window-height="1017"
     inkscape:window-x="-8"
     inkscape:window-y="80"
     inkscape:window-maximized="1"
     inkscape:current-layer="layer1" /><defs
     id="defs1" /><g
     inkscape:label="Camada 1"
     inkscape:groupmode="layer"
     id="layer1"><path
       id="path1"
       style="display:inline;opacity:1;fill:#000000;stroke-width:0.0972398;fill-opacity:1"
       d="M 97.245744,95.118225 A 35.418972,35.418968 0 0 0 61.826717,130.53725 35.418972,35.418968 0 0 0 97.245744,165.95576 35.418972,35.418968 0 0 0 132.66477,130.53725 35.418972,35.418968 0 0 0 97.245744,95.118225 Z m 0,8.072375 A 27.534184,27.346447 0 0 1 124.77998,130.53725 27.534184,27.346447 0 0 1 97.245744,157.88339 27.534184,27.346447 0 0 1 69.711507,130.53725 27.534184,27.346447 0 0 1 97.245744,103.1906 Z" /><path
       style="opacity:1;fill:#000000;stroke-width:0.1;fill-opacity:1"
       d="m 116.58223,158.57185 29.59924,30.72565 c 1.61655,1.86374 3.54495,3.99028 8.07252,1.56444 4.35413,-3.22514 3.94843,-6.99914 2.06507,-9.13634 l -31.35142,-32.16493 c -6.3654,8.05134 -6.52304,7.3262 -8.38541,9.01118 z"
       id="path2"
       sodipodi:nodetypes="cccccc" /></g></svg>
