<?xml version="1.0" encoding="UTF-8" standalone="no"?>
<!-- Created with Inkscape (http://www.inkscape.org/) -->

<svg
   width="210mm"
   height="297mm"
   viewBox="0 0 210 297"
   version="1.1"
   id="svg1"
   xml:space="preserve"
   inkscape:version="1.3 (0e150ed6c4, 2023-07-21)"
   sodipodi:docname="olho aber.svg"
   xmlns:inkscape="http://www.inkscape.org/namespaces/inkscape"
   xmlns:sodipodi="http://sodipodi.sourceforge.net/DTD/sodipodi-0.dtd"
   xmlns="http://www.w3.org/2000/svg"
   xmlns:svg="http://www.w3.org/2000/svg"><sodipodi:namedview
     id="namedview1"
     pagecolor="#ffffff"
     bordercolor="#000000"
     borderopacity="0.25"
     inkscape:showpageshadow="2"
     inkscape:pageopacity="0.0"
     inkscape:pagecheckerboard="0"
     inkscape:deskcolor="#d1d1d1"
     inkscape:document-units="mm"
     inkscape:zoom="0.74742565"
     inkscape:cx="676.99042"
     inkscape:cy="653.57672"
     inkscape:window-width="1920"
     inkscape:window-height="1017"
     inkscape:window-x="-8"
     inkscape:window-y="80"
     inkscape:window-maximized="1"
     inkscape:current-layer="layer2" /><defs
     id="defs1" /><g
     inkscape:groupmode="layer"
     id="layer2"
     inkscape:label="Camada 2"><path
       id="path2"
       style="display:inline;opacity:1;fill:#000000;fill-opacity:1;stroke:#000000;stroke-width:3.16016;stroke-dasharray:none;stroke-opacity:1"
       d="m 96.735234,151.65403 a 17.159121,20.011523 0 0 0 -17.159176,20.01229 17.159121,20.011523 0 0 0 17.159176,20.01119 17.159121,20.011523 0 0 0 17.159156,-20.01119 17.159121,20.011523 0 0 0 -17.159156,-20.01229 z m 0.562457,8.96204 a 9.0014146,11.049825 0 0 1 9.001449,11.04915 9.0014146,11.049825 0 0 1 -9.001449,11.05025 9.0014146,11.049825 0 0 1 -9.001435,-11.05025 9.0014146,11.049825 0 0 1 9.001435,-11.04915 z" /><path
       id="path1"
       style="opacity:1;fill:#000000;fill-opacity:1;stroke:#000000;stroke-width:2.82218;stroke-dasharray:none;stroke-opacity:1"
       d="m 95.080285,127.5702 c -17.691087,0.33515 -37.177975,11.36272 -55.135468,43.26962 33.967197,53.90055 76.774393,57.01004 113.684583,0.85672 2.45403,-6.43437 -24.77523,-44.76616 -58.549115,-44.12634 z m 2.984697,10.82049 c 14.540258,0.2498 30.555728,8.46885 45.314938,32.25057 -27.91755,40.17463 -63.100167,42.49298 -93.436555,0.6392 -2.016953,-4.79582 20.362944,-33.36668 48.121617,-32.88977 z" /></g></svg>
