<?xml version="1.0" encoding="UTF-8" standalone="no"?>
<!-- Created with Inkscape (http://www.inkscape.org/) -->

<svg
   width="210mm"
   height="297mm"
   viewBox="0 0 210 297"
   version="1.1"
   id="svg1"
   xml:space="preserve"
   inkscape:version="1.3 (0e150ed6c4, 2023-07-21)"
   sodipodi:docname="olho fecha.svg"
   xmlns:inkscape="http://www.inkscape.org/namespaces/inkscape"
   xmlns:sodipodi="http://sodipodi.sourceforge.net/DTD/sodipodi-0.dtd"
   xmlns="http://www.w3.org/2000/svg"
   xmlns:svg="http://www.w3.org/2000/svg"><sodipodi:namedview
     id="namedview1"
     pagecolor="#ffffff"
     bordercolor="#000000"
     borderopacity="0.25"
     inkscape:showpageshadow="2"
     inkscape:pageopacity="0.0"
     inkscape:pagecheckerboard="0"
     inkscape:deskcolor="#d1d1d1"
     inkscape:document-units="mm"
     inkscape:zoom="0.52850974"
     inkscape:cx="677.37635"
     inkscape:cy="653.72494"
     inkscape:window-width="1920"
     inkscape:window-height="1017"
     inkscape:window-x="-8"
     inkscape:window-y="80"
     inkscape:window-maximized="1"
     inkscape:current-layer="layer2" /><defs
     id="defs1" /><g
     inkscape:groupmode="layer"
     id="layer2"
     inkscape:label="Camada 2"><path
       id="path2-5"
       style="display:inline;fill:#000000;fill-opacity:1;stroke:#000000;stroke-width:3.16016;stroke-dasharray:none;stroke-opacity:1"
       d="m 105.00002,149.62199 a 17.159121,20.011523 0 0 0 -17.159185,20.0123 17.159121,20.011523 0 0 0 17.159185,20.01119 17.159121,20.011523 0 0 0 17.15915,-20.01119 17.159121,20.011523 0 0 0 -17.15915,-20.0123 z m 0.56247,8.96204 a 9.0014146,11.049825 0 0 1 9.00144,11.04916 9.0014146,11.049825 0 0 1 -9.00144,11.05025 9.0014146,11.049825 0 0 1 -9.001435,-11.05025 9.0014146,11.049825 0 0 1 9.001435,-11.04916 z" /><path
       id="path1-3"
       style="fill:#000000;fill-opacity:1;stroke:#000000;stroke-width:2.82218;stroke-dasharray:none;stroke-opacity:1"
       d="m 103.34508,125.53817 c -17.691095,0.33515 -37.177995,11.36271 -55.135475,43.26961 33.96719,53.90055 76.774405,57.01004 113.684585,0.85673 2.45403,-6.43437 -24.77522,-44.76616 -58.54911,-44.12634 z m 2.9847,10.82048 c 14.54024,0.2498 30.55572,8.46886 45.31494,32.25058 -27.91756,40.17463 -63.100185,42.49298 -93.436575,0.6392 -2.01695,-4.79583 20.36295,-33.36669 48.121635,-32.88978 z" /><rect
       style="fill:#000000;fill-opacity:1;stroke:#000000;stroke-width:3.16389;stroke-dasharray:none;stroke-opacity:1"
       id="rect3"
       width="8.17344"
       height="117.37777"
       x="181.87973"
       y="-1.7586557"
       transform="matrix(0.75080766,0.6605209,-0.60820088,0.79378315,0,0)" /></g></svg>
