<?xml version="1.0" encoding="UTF-8" standalone="no"?>
<!-- Created with Inkscape (http://www.inkscape.org/) -->

<svg
   width="210mm"
   height="297mm"
   viewBox="0 0 210 297"
   version="1.1"
   id="svg1"
   inkscape:version="1.3 (0e150ed6c4, 2023-07-21)"
   sodipodi:docname="perfil.svg"
   xmlns:inkscape="http://www.inkscape.org/namespaces/inkscape"
   xmlns:sodipodi="http://sodipodi.sourceforge.net/DTD/sodipodi-0.dtd"
   xmlns="http://www.w3.org/2000/svg"
   xmlns:svg="http://www.w3.org/2000/svg">
  <sodipodi:namedview
     id="namedview1"
     pagecolor="#ffffff"
     bordercolor="#000000"
     borderopacity="0.25"
     inkscape:showpageshadow="2"
     inkscape:pageopacity="0.0"
     inkscape:pagecheckerboard="0"
     inkscape:deskcolor="#d1d1d1"
     inkscape:document-units="mm"
     inkscape:zoom="0.51717104"
     inkscape:cx="15.46877"
     inkscape:cy="320.01019"
     inkscape:window-width="1920"
     inkscape:window-height="1017"
     inkscape:window-x="-8"
     inkscape:window-y="80"
     inkscape:window-maximized="1"
     inkscape:current-layer="layer1" />
  <defs
     id="defs1" />
  <g
     inkscape:label="Camada 1"
     inkscape:groupmode="layer"
     id="layer1">
    <path
       id="rect545"
       style="fill:#000000;stroke-width:0.911551;stroke-linecap:round;stroke-linejoin:round;paint-order:stroke markers fill"
       d="m 86.977906,113.23123 c -10.126808,0 -18.279576,7.99146 -18.279576,17.91787 v 35.33095 c 0,8.28904 5.686722,15.22481 13.458883,17.28872 A 23.56424,28.716382 0 0 1 105,162.03092 23.56424,28.716382 0 0 1 127.85709,183.7645 c 7.76476,-2.06867 13.44458,-9.00054 13.44458,-17.28445 V 131.1491 c 0,-9.92641 -8.15277,-17.91787 -18.27958,-17.91787 z m 17.385214,17.58622 a 12.737427,13.109653 0 0 1 12.73744,13.10966 12.737427,13.109653 0 0 1 -12.73744,13.10965 12.737427,13.109653 0 0 1 -12.737421,-13.10965 12.737427,13.109653 0 0 1 12.737421,-13.10966 z" />
  </g>
</svg>
