<?xml version="1.0" encoding="UTF-8" standalone="no"?>
<!-- Created with Inkscape (http://www.inkscape.org/) -->

<svg
   version="1.1"
   id="svg1"
   width="477.20389"
   height="477.20389"
   viewBox="0 0 477.20389 477.20389"
   sodipodi:docname="Relogio.svg"
   inkscape:version="1.3 (0e150ed6c4, 2023-07-21)"
   xmlns:inkscape="http://www.inkscape.org/namespaces/inkscape"
   xmlns:sodipodi="http://sodipodi.sourceforge.net/DTD/sodipodi-0.dtd"
   xmlns:xlink="http://www.w3.org/1999/xlink"
   xmlns="http://www.w3.org/2000/svg"
   xmlns:svg="http://www.w3.org/2000/svg">
  <defs
     id="defs1">
    <inkscape:path-effect
       effect="spiro"
       id="path-effect3"
       is_visible="true"
       lpeversion="1" />
  </defs>
  <sodipodi:namedview
     id="namedview1"
     pagecolor="#ffffff"
     bordercolor="#000000"
     borderopacity="0.25"
     inkscape:showpageshadow="2"
     inkscape:pageopacity="0.0"
     inkscape:pagecheckerboard="0"
     inkscape:deskcolor="#d1d1d1"
     showgrid="false"
     inkscape:zoom="0.87907918"
     inkscape:cx="-14.788202"
     inkscape:cy="129.11237"
     inkscape:window-width="1920"
     inkscape:window-height="1017"
     inkscape:window-x="-8"
     inkscape:window-y="80"
     inkscape:window-maximized="1"
     inkscape:current-layer="g2" />
  <g
     inkscape:groupmode="layer"
     inkscape:label="Image"
     id="g1">
    <image
       width="290.64505"
       height="263.34375"
       preserveAspectRatio="none"
       style="display:none;opacity:0.313291;image-rendering:optimizeQuality"
       xlink:href="565526.png"
       id="image1"
       x="93.279427"
       y="106.93007"
       sodipodi:insensitive="true" />
    <g
       id="g2"
       transform="matrix(0.06554889,-1.9933533,1.701127,0.07680914,-89.272802,349.16824)">
      <rect
         style="fill:#000000;stroke-width:0.135605"
         id="rect3-3"
         width="7.9340081"
         height="16.111721"
         x="204.58232"
         y="-113.6932"
         transform="rotate(87.793335)"
         ry="2.2480671" />
      <rect
         style="fill:#000000;stroke-width:0.0863646"
         id="rect3-3-9"
         width="4.9927874"
         height="10.385188"
         x="76.998146"
         y="-256.45758"
         transform="matrix(-0.74129038,0.67118446,-0.6307805,-0.77596132,0,0)"
         ry="1.4490445"
         inkscape:transform-center-x="1.1982883"
         inkscape:transform-center-y="-1.2675634" />
      <rect
         style="fill:#000000;stroke-width:0.0863646"
         id="rect3-3-9-4"
         width="4.9927874"
         height="10.385188"
         x="-172.53967"
         y="62.13089"
         transform="matrix(-0.79074067,-0.61215128,-0.56919916,0.82219968,0,0)"
         ry="1.4490445"
         inkscape:transform-center-x="-1.1982855"
         inkscape:transform-center-y="-1.2675586" />
      <rect
         style="fill:#000000;stroke-width:0.243494"
         id="rect3"
         width="11.609164"
         height="35.502266"
         x="201.90947"
         y="-83.008492"
         transform="rotate(87.793335)"
         ry="4.9536285" />
      <rect
         style="fill:#000000;stroke-width:0.230852"
         id="rect3-4"
         width="10.602726"
         height="34.940346"
         x="-167.30521"
         y="-147.12683"
         transform="matrix(-0.75584877,-0.65474624,0.53103261,-0.84735138,0,0)"
         ry="4.8752241" />
      <path
         id="path4"
         style="opacity:1;fill:#000000;fill-opacity:1;stroke-width:0.246539"
         d="M 126.71012,203.82211 A 72.998017,60.217263 87.793335 0 0 63.726708,133.1962 72.998017,60.217263 87.793335 0 0 6.3647755,208.45933 72.998017,60.217263 87.793335 0 0 69.348158,279.08424 72.998017,60.217263 87.793335 0 0 126.71012,203.82211 Z m -9.76602,0.37631 A 62.173862,50.827878 87.793335 0 1 68.547328,268.28256 62.173862,50.827878 87.793335 0 1 15.36357,208.11258 62.173862,50.827878 87.793335 0 1 63.759453,144.02747 62.173862,50.827878 87.793335 0 1 116.9441,204.19842 Z" />
      <rect
         style="fill:#000000;stroke-width:0.138434"
         id="rect3-3-8"
         width="7.9340081"
         height="16.790958"
         x="204.58231"
         y="-18.473566"
         transform="rotate(87.793335)"
         ry="2.3428409" />
      <rect
         style="fill:#000000;stroke-width:0.139021"
         id="rect3-3-2"
         width="6.7708797"
         height="19.842428"
         x="52.040913"
         y="-161.41818"
         transform="matrix(0.99925844,-0.03850406,-0.03850405,-0.99925844,0,0)"
         ry="2.7686121" />
      <rect
         style="fill:#000000;stroke-width:0.135464"
         id="rect3-3-2-6"
         width="6.7708797"
         height="18.840113"
         x="52.040916"
         y="-277.29547"
         transform="matrix(0.99925844,-0.03850406,-0.03850405,-0.99925844,0,0)"
         ry="2.6287591" />
      <rect
         style="fill:#000000;stroke-width:0.0863646"
         id="rect3-3-9-0"
         width="4.9927874"
         height="10.385188"
         x="-81.395393"
         y="136.97717"
         transform="matrix(0.74129037,-0.67118447,0.6307805,0.77596131,0,0)"
         ry="1.4490445"
         inkscape:transform-center-x="-1.1982992"
         inkscape:transform-center-y="1.2675437" />
      <rect
         style="fill:#000000;stroke-width:0.0863646"
         id="rect3-3-9-4-8"
         width="4.9927874"
         height="10.385188"
         x="169.73563"
         y="-183.64537"
         transform="matrix(0.79074067,0.61215128,0.56919916,-0.82219968,0,0)"
         ry="1.4490445"
         inkscape:transform-center-x="1.1982891"
         inkscape:transform-center-y="1.2675792" />
    </g>
  </g>
</svg>
