<?xml version="1.0" encoding="UTF-8" standalone="no"?>
<!-- Created with Inkscape (http://www.inkscape.org/) -->

<svg
   width="210mm"
   height="297mm"
   viewBox="0 0 210 297"
   version="1.1"
   id="svg1"
   xml:space="preserve"
   inkscape:version="1.3 (0e150ed6c4, 2023-07-21)"
   sodipodi:docname="seta.svg"
   xmlns:inkscape="http://www.inkscape.org/namespaces/inkscape"
   xmlns:sodipodi="http://sodipodi.sourceforge.net/DTD/sodipodi-0.dtd"
   xmlns="http://www.w3.org/2000/svg"
   xmlns:svg="http://www.w3.org/2000/svg"><sodipodi:namedview
     id="namedview1"
     pagecolor="#ffffff"
     bordercolor="#000000"
     borderopacity="0.25"
     inkscape:showpageshadow="2"
     inkscape:pageopacity="0.0"
     inkscape:pagecheckerboard="0"
     inkscape:deskcolor="#d1d1d1"
     inkscape:document-units="mm"
     inkscape:zoom="0.74742565"
     inkscape:cx="421.4466"
     inkscape:cy="616.1148"
     inkscape:window-width="1920"
     inkscape:window-height="1017"
     inkscape:window-x="-8"
     inkscape:window-y="80"
     inkscape:window-maximized="1"
     inkscape:current-layer="layer1" /><defs
     id="defs1" /><g
     inkscape:label="Camada 1"
     inkscape:groupmode="layer"
     id="layer1"><path
       id="path1"
       style="opacity:1;fill:#000000;fill-opacity:1;stroke-width:0.103792"
       d="M 98.212093 203.65785 A 6.7119918 6.3829265 0 0 1 94.664506 204.62885 A 6.7119918 6.3829265 0 0 1 91.135522 203.66767 A 7.2131901 8.4479876 0 0 0 87.450993 211.01193 A 7.2131901 8.4479876 0 0 0 94.664506 219.45999 A 7.2131901 8.4479876 0 0 0 101.8775 211.01193 A 7.2131901 8.4479876 0 0 0 98.212093 203.65785 z " /><ellipse
       style="opacity:1;fill:#000000;fill-opacity:1;stroke-width:0.0829569"
       id="path1-9"
       cx="-115.39516"
       cy="147.77679"
       rx="5.6921167"
       ry="6.838872"
       transform="matrix(0.59327324,-0.80500116,0.82208769,0.5693609,0,0)" /><ellipse
       style="opacity:1;fill:#000000;fill-opacity:1;stroke-width:0.0829569"
       id="path1-9-9"
       cx="-222.79285"
       cy="-4.4914508"
       rx="5.6921167"
       ry="6.838872"
       transform="matrix(-0.59327324,-0.80500116,-0.82208769,0.5693609,0,0)" /><path
       style="opacity:1;fill:#000000;fill-opacity:1;stroke-width:0.1"
       d="M 48.606487,180.54996 C 49.607728,181.67636 90.2996,217.6139 90.2996,217.6139 L 91.175685,203.72166 68.303541,183.19617 57.853068,173.84081 Z"
       id="path2"
       sodipodi:nodetypes="cccccc" /><path
       style="opacity:1;fill:#000000;fill-opacity:1;stroke-width:0.1"
       d="m 139.68416,180.94338 c -1.00124,1.1264 -41.301272,37.20243 -41.301272,37.20243 l -0.625755,-14.25206 22.934717,-20.69758 10.04373,-9.38665 z"
       id="path2-4"
       sodipodi:nodetypes="cccccc" /></g></svg>
