<?xml version="1.0" encoding="UTF-8" standalone="no"?>
<!-- Created with Inkscape (http://www.inkscape.org/) -->

<svg
   width="210mm"
   height="297mm"
   viewBox="0 0 210 297"
   version="1.1"
   id="svg1"
   xml:space="preserve"
   inkscape:version="1.3 (0e150ed6c4, 2023-07-21)"
   sodipodi:docname="star meio.svg"
   xmlns:inkscape="http://www.inkscape.org/namespaces/inkscape"
   xmlns:sodipodi="http://sodipodi.sourceforge.net/DTD/sodipodi-0.dtd"
   xmlns="http://www.w3.org/2000/svg"
   xmlns:svg="http://www.w3.org/2000/svg"><sodipodi:namedview
     id="namedview1"
     pagecolor="#ffffff"
     bordercolor="#000000"
     borderopacity="0.25"
     inkscape:showpageshadow="2"
     inkscape:pageopacity="0.0"
     inkscape:pagecheckerboard="0"
     inkscape:deskcolor="#d1d1d1"
     inkscape:document-units="mm"
     inkscape:zoom="1.4948513"
     inkscape:cx="37.46192"
     inkscape:cy="522.12551"
     inkscape:window-width="1920"
     inkscape:window-height="1017"
     inkscape:window-x="-8"
     inkscape:window-y="80"
     inkscape:window-maximized="1"
     inkscape:current-layer="layer1" /><defs
     id="defs1" /><g
     inkscape:label="Camada 1"
     inkscape:groupmode="layer"
     id="layer1"><g
       id="g1"><path
         id="path1"
         style="fill:#000000;stroke-width:0.0326274"
         d="M 27.823108 126.97106 A 2.6731403 2.9318461 0 0 0 25.149886 129.90318 A 2.6731403 2.9318461 0 0 0 27.823108 132.83479 A 2.6731403 2.9318461 0 0 0 27.882536 132.83014 L 27.882536 126.97261 A 2.6731403 2.9318461 0 0 0 27.823108 126.97106 z " /><ellipse
         style="fill:#000000;stroke-width:0.0326475"
         id="path1-5"
         cx="88.522858"
         cy="147.01163"
         rx="2.6436288"
         ry="2.9682252"
         transform="matrix(0.91451453,0.40455306,-0.44939424,0.89333354,0,0)" /><ellipse
         style="fill:#000000;stroke-width:0.0326282"
         id="path1-0"
         cx="-143.23383"
         cy="18.378691"
         rx="2.5076725"
         ry="3.1254442"
         inkscape:transform-center-x="1.4061001"
         inkscape:transform-center-y="2.2027966"
         transform="matrix(0.07900458,-0.99687425,0.99758032,0.06952337,0,0)" /><path
         id="path2"
         style="fill:#000000;stroke-width:0.0342109"
         d="M 25.444958 128.58543 C 25.444958 128.58543 20.095889 138.55154 19.879924 138.87576 C 19.663813 139.20019 19.047161 139.73889 18.599898 139.84211 C 18.219502 139.9299 6.5629069 141.55467 6.5629069 141.55467 L 4.5619954 145.50068 L 13.620874 153.92239 C 13.962158 154.2509 14.143662 154.82848 14.191382 155.30732 L 12.127942 166.90299 L 15.973702 169.57104 L 27.207125 164.14709 C 27.420306 164.08317 27.623765 164.06499 27.823108 164.06595 L 27.823108 128.62832 L 25.444958 128.58543 z " /></g></g></svg>
