<?xml version="1.0" encoding="UTF-8" standalone="no"?>
<!-- Created with Inkscape (http://www.inkscape.org/) -->

<svg
   width="229mm"
   height="216mm"
   viewBox="0 0 229 216"
   version="1.1"
   id="svg1"
   inkscape:export-filename="Menu.png"
   inkscape:export-xdpi="96"
   inkscape:export-ydpi="96"
   inkscape:version="1.3 (0e150ed6c4, 2023-07-21)"
   sodipodi:docname="Icones todos certos.svg"
   xmlns:inkscape="http://www.inkscape.org/namespaces/inkscape"
   xmlns:sodipodi="http://sodipodi.sourceforge.net/DTD/sodipodi-0.dtd"
   xmlns="http://www.w3.org/2000/svg"
   xmlns:svg="http://www.w3.org/2000/svg">
  <sodipodi:namedview
     id="namedview1"
     pagecolor="#ffffff"
     bordercolor="#000000"
     borderopacity="0.25"
     inkscape:showpageshadow="2"
     inkscape:pageopacity="0.0"
     inkscape:pagecheckerboard="0"
     inkscape:deskcolor="#d1d1d1"
     inkscape:document-units="mm"
     inkscape:zoom="0.12929276"
     inkscape:cx="1229.7672"
     inkscape:cy="-96.679815"
     inkscape:window-width="1920"
     inkscape:window-height="1017"
     inkscape:window-x="-8"
     inkscape:window-y="80"
     inkscape:window-maximized="1"
     inkscape:current-layer="layer1" />
  <defs
     id="defs1" />
  <g
     inkscape:label="Camada 1"
     inkscape:groupmode="layer"
     id="layer1">
    <g
       id="g17"
       style="display:none;fill:#000000;fill-opacity:1"
       transform="matrix(3.6477494,0,0,3.6146838,290.18479,-585.88794)">
      <g
         id="g6"
         style="display:inline">
        <rect
           style="opacity:1;fill:#000000;fill-opacity:1;stroke-width:0.097632"
           id="rect4"
           width="35.165985"
           height="8.1567926"
           x="14.369305"
           y="177.84531"
           ry="4.0783963" />
        <rect
           style="fill:#000000;fill-opacity:1;stroke-width:0.097632"
           id="rect4-4"
           width="35.165985"
           height="8.1567926"
           x="14.369305"
           y="190.22124"
           ry="4.0783963" />
        <rect
           style="fill:#000000;fill-opacity:1;stroke-width:0.097632"
           id="rect4-8"
           width="35.165985"
           height="8.1567926"
           x="14.369305"
           y="202.59717"
           ry="4.0783963" />
      </g>
    </g>
    <g
       id="g7"
       style="display:inline"
       transform="matrix(3.7171042,0,0,3.8112964,695.73971,-964.46566)">
      <g
         id="g18"
         style="display:inline;fill:#000000;fill-opacity:1"
         transform="translate(-186.95779,29.273956)">
        <path
           id="rect5"
           style="opacity:1;fill:#000000;fill-opacity:1;stroke-width:0.0996494"
           d="m 20.325891,232.92532 c -2.450581,0 -4.423502,1.97291 -4.423502,4.4235 v 26.23199 c 0,2.45059 1.972921,4.4235 4.423502,4.4235 H 40.85177 c 2.19789,0 4.006694,-1.58873 4.357357,-3.68401 -0.512052,-0.1197 -0.891419,-0.57647 -0.891419,-1.12603 v -3.70417 c 0,-0.57299 0.412329,-1.04518 0.957565,-1.13946 v -21.00182 c 0,-2.45059 -1.972918,-4.4235 -4.423503,-4.4235 z m 4.197677,8.8377 h 14.122135 c 0.393928,0 0.711068,0.31714 0.711068,0.71107 v 0.89297 c 0,0.39393 -0.31714,0.71106 -0.711068,0.71106 H 24.523568 c -0.393929,0 -0.711068,-0.31713 -0.711068,-0.71106 v -0.89297 c 0,-0.39393 0.317139,-0.71107 0.711068,-0.71107 z m 0,4.29535 h 14.122135 c 0.393928,0 0.711068,0.31714 0.711068,0.71106 v 0.89297 c 0,0.39393 -0.31714,0.71107 -0.711068,0.71107 H 24.523568 c -0.393929,0 -0.711068,-0.31714 -0.711068,-0.71107 v -0.89297 c 0,-0.39392 0.317139,-0.71106 0.711068,-0.71106 z m -2.166276,12.94236 a 2.5958552,2.3035293 0 0 1 0.07596,0.004 h 18.536853 v 4.59507 H 22.50922 a 2.5958552,2.3035293 0 0 1 -0.151928,0.008 2.5958552,2.3035293 0 0 1 -0.05891,-0.008 h -0.504879 v -0.0708 a 2.5958552,2.3035293 0 0 1 -2.032434,-2.22467 2.5958552,2.3035293 0 0 1 2.032434,-2.22467 v -0.0749 h 0.534334 a 2.5958552,2.3035293 0 0 1 0.02946,-0.004 z" />
        <rect
           style="opacity:1;fill:#000000;fill-opacity:1;stroke-width:0.120797"
           id="rect6"
           width="5.8854294"
           height="4.9516325"
           x="39.389843"
           y="232.92531"
           ry="1.1575521" />
        <rect
           style="fill:#000000;fill-opacity:1;stroke-width:0.0982878"
           id="rect6-3"
           width="5.2570438"
           height="3.6700568"
           x="40.01823"
           y="264.2691"
           ry="0.19351837" />
      </g>
    </g>
    <g
       id="g21"
       transform="matrix(4.2227226,0,0,4.466601,441.96212,-546.84647)"
       style="display:none">
      <rect
         style="fill:#000000;fill-opacity:1;stroke-width:0.0378432"
         id="rect14"
         width="18.93321"
         height="18.910011"
         x="-95.55732"
         y="122.52759"
         transform="matrix(0.73500103,-0.67806599,0.7210586,0.69287408,0,0)" />
      <path
         style="fill:#000000;fill-opacity:1;stroke-width:0.0355411"
         id="path14"
         sodipodi:type="arc"
         sodipodi:cx="-86.090836"
         sodipodi:cy="-122.62624"
         sodipodi:rx="9.4667244"
         sodipodi:ry="9.3752995"
         sodipodi:start="0"
         sodipodi:end="3.1345129"
         sodipodi:arc-type="slice"
         d="m -76.624111,-122.62624 a 9.4667244,9.3752995 0 0 1 -9.433214,9.37524 9.4667244,9.3752995 0 0 1 -9.499998,-9.30887 l 9.466487,-0.0664 z"
         transform="matrix(0.73500103,-0.67806599,-0.7210586,-0.69287408,0,0)" />
      <path
         style="fill:#000000;fill-opacity:1;stroke-width:0.0362913"
         id="path14-3"
         sodipodi:type="arc"
         sodipodi:cx="-132.32217"
         sodipodi:cy="-76.331978"
         sodipodi:rx="9.4520397"
         sodipodi:ry="9.7904835"
         sodipodi:start="0"
         sodipodi:end="3.1345129"
         sodipodi:arc-type="slice"
         d="m -122.87013,-76.331978 a 9.4520397,9.7904835 0 0 1 -9.41859,9.790422 9.4520397,9.7904835 0 0 1 -9.48526,-9.721108 l 9.45181,-0.06931 z"
         transform="matrix(-0.71728304,-0.69678192,0.73837039,-0.67439541,0,0)" />
    </g>
    <g
       id="g20"
       transform="matrix(3.493959,0,0,3.3987202,398.30732,-120.35232)"
       style="display:none">
      <g
         id="g5"
         transform="matrix(1.0894083,0,0,1.0377181,66.156306,-27.749438)"
         style="display:inline">
        <ellipse
           style="fill:#000000;fill-opacity:1;stroke-width:0.0976192"
           id="path1"
           cx="31.952299"
           cy="91.613731"
           rx="13.178994"
           ry="12.390381" />
        <rect
           style="fill:#000000;fill-opacity:1;stroke-width:0.1"
           id="rect1"
           width="26.357988"
           height="17.897217"
           x="18.773306"
           y="90.984489"
           rx="0.13801251"
           ry="6.5488539" />
        <rect
           style="fill:#000000;fill-opacity:1;stroke-width:0.110233"
           id="rect2"
           width="6.8522568"
           height="2.16716"
           x="14.305486"
           y="106.71455"
           rx="0"
           ry="0" />
        <rect
           style="fill:#000000;fill-opacity:1;stroke-width:0.107885"
           id="rect2-1"
           width="6.8522568"
           height="2.0758021"
           x="42.736385"
           y="106.8059"
           rx="0"
           ry="0" />
        <path
           style="fill:#000000;fill-opacity:1;stroke-width:0.103449"
           d="m 14.305486,106.71455 4.754754,-3.98387 0.0374,3.98387 z"
           id="path2" />
        <path
           style="fill:#000000;fill-opacity:1;stroke-width:0.10046"
           d="m 49.588642,106.8059 -4.484033,-3.98387 -0.128814,4.06572 z"
           id="path2-5"
           sodipodi:nodetypes="cccc" />
        <path
           style="fill:#000000;fill-opacity:1;stroke-width:0.141274"
           id="path3"
           sodipodi:type="arc"
           sodipodi:cx="-32.383724"
           sodipodi:cy="-77.864349"
           sodipodi:rx="3.2329593"
           sodipodi:ry="3.0657501"
           sodipodi:start="0"
           sodipodi:end="3.132614"
           sodipodi:open="true"
           sodipodi:arc-type="arc"
           d="m -29.150765,-77.864349 a 3.2329593,3.0657501 0 0 1 -3.218445,3.065719 3.2329593,3.0657501 0 0 1 -3.247343,-3.038193"
           transform="matrix(-0.99995133,-0.00986565,0.00552064,-0.99998476,0,0)" />
        <path
           style="fill:#000000;fill-opacity:1;stroke-width:0.189607"
           id="path3-7"
           sodipodi:type="arc"
           sodipodi:cx="-31.333239"
           sodipodi:cy="111.23935"
           sodipodi:rx="4.3616576"
           sodipodi:ry="4.093235"
           sodipodi:start="0"
           sodipodi:end="3.132614"
           sodipodi:open="true"
           sodipodi:arc-type="arc"
           d="m -26.971581,111.23935 a 4.3616576,4.093235 0 0 1 -4.342077,4.09319 4.3616576,4.093235 0 0 1 -4.381062,-4.05644"
           transform="matrix(-0.99995234,0.00976347,0.00557843,0.99998444,0,0)" />
        <rect
           style="fill:#000000;fill-opacity:1;stroke-width:0.1"
           id="rect3"
           width="6.4656253"
           height="2.2158854"
           x="28.719486"
           y="78.101692"
           rx="0" />
        <path
           style="opacity:1;fill:#000000;fill-opacity:1;stroke-width:0.1"
           d="m 14.305486,106.71455 1.100096,-0.70543 3.502066,0.36248 0.01169,0.69574 z"
           id="path18"
           sodipodi:nodetypes="ccccc" />
      </g>
    </g>
    <g
       id="g4"
       transform="matrix(1.1346781,0,0,1.1478309,808.84524,2.6699092)"
       style="display:none">
      <rect
         style="fill:#000000;fill-opacity:1;stroke-width:0.304294"
         id="rect7"
         width="33.2658"
         height="45.413647"
         x="61.337761"
         y="120.7127"
         ry="3.5165436" />
      <rect
         style="fill:#000000;fill-opacity:1;stroke-width:0.304294"
         id="rect8"
         width="34.072247"
         height="45.413647"
         x="128.87743"
         y="120.71269"
         ry="3.5165436" />
      <rect
         style="fill:#000000;fill-opacity:1;stroke-width:0.319043"
         id="rect9"
         width="101.61189"
         height="31.146526"
         x="61.337761"
         y="95.795479"
         ry="3.8657038" />
      <path
         style="fill:#000000;fill-opacity:1;stroke-width:0.304294"
         d="m 94.314371,132.59203 c 0,0 0.285108,-1.7406 0.641523,-2.77075 0.3564,-1.03015 2.102768,-2.16492 2.851205,-2.5221 0.748442,-0.35717 3.421461,-0.35717 3.421461,-0.35717 l -7.234949,-1.73865 z"
         id="path9" />
      <path
         style="fill:#000000;fill-opacity:1;stroke-width:0.304294"
         d="m 129.59207,132.49706 c 0,0 -0.28511,-1.74061 -0.64152,-2.77076 -0.3564,-1.03015 -2.10277,-2.16491 -2.85121,-2.52209 -0.74844,-0.35718 -3.42145,-0.35718 -3.42145,-0.35718 l 7.23494,-1.73864 z"
         id="path9-1" />
      <ellipse
         style="fill:#000000;fill-opacity:1;stroke-width:0.329693"
         id="path10"
         cx="112.15549"
         cy="65.980217"
         rx="6.1239328"
         ry="5.2999334" />
      <path
         style="fill:#000000;fill-opacity:1;stroke-width:0.304294"
         d="m 62.396221,97.001156 45.261649,-34.512362 8.97169,-0.100464 44.54566,34.04185 z"
         id="path11" />
      <ellipse
         style="fill:#000000;fill-opacity:1;stroke-width:0.316159"
         id="path12-0-1"
         cx="-51.121815"
         cy="96.297852"
         rx="7.0815835"
         ry="6.4804869"
         transform="scale(-1,1)" />
      <rect
         style="fill:#000000;fill-opacity:1;stroke-width:0.276999"
         id="rect12-5"
         width="81.985115"
         height="13.503626"
         x="-71.145592"
         y="97.365639"
         ry="3.258271"
         transform="matrix(-0.80199018,0.59733722,0.52968152,0.84819661,0,0)" />
      <rect
         style="fill:#000000;fill-opacity:1;stroke-width:0.270331"
         id="rect13-6"
         width="4.5666442"
         height="6.4428096"
         x="-48.652077"
         y="89.917839"
         ry="0"
         transform="scale(-1,1)" />
      <ellipse
         style="fill:#000000;fill-opacity:1;stroke-width:0.316159"
         id="path12-0"
         cx="173.71065"
         cy="96.297852"
         rx="7.0815835"
         ry="6.4804869" />
      <rect
         style="fill:#000000;fill-opacity:1;stroke-width:0.277067"
         id="rect12"
         width="82.209145"
         height="13.47344"
         x="119.68832"
         y="-36.000427"
         ry="3.2509878"
         transform="matrix(0.80588077,0.59207785,-0.53490124,0.84491459,0,0)" />
      <rect
         style="fill:#000000;fill-opacity:1;stroke-width:0.270331"
         id="rect13"
         width="4.5666442"
         height="6.4428096"
         x="176.18039"
         y="89.917839"
         ry="0" />
      <ellipse
         style="fill:#000000;fill-opacity:1;stroke-width:0.309564"
         id="path13"
         cx="111.78572"
         cy="46.950008"
         rx="8.4619942"
         ry="7.2340322" />
      <path
         style="fill:#000000;stroke-width:0.1"
         d="m 58.167978,96.358974 c -0.02048,-0.317964 0.03542,-2.292089 0.03542,-2.292089 l -1.292964,1.316846 z"
         id="path4" />
      <path
         style="fill:#000000;stroke-width:0.1"
         d="m 166.62906,96.506991 c 0.0205,-0.31796 -0.1827,-2.535143 -0.1827,-2.535143 l 1.41167,1.350764 z"
         id="path4-1"
         sodipodi:nodetypes="cccc" />
    </g>
  </g>
</svg>
